# xmcd CD database file
#
# Track frame offsets:
#	150
#	64637
#	92612
#	125687
#	156212
#
# Disc length: 2509 seconds
#
# Revision: 1
# Processed by: cddbd v1.5.1PL2 Copyright (c) Steve Scherf et al.
# Submitted via: CDex 1.50Beta5
#
DISCID=3a09cb05
DTITLE=Billy Bang and Dennis Charles - Bangception, Willisau 1982
DYEAR=1998
DGENRE=Jazz
TTITLE0=Air Traffic Control
TTITLE1=Lonely Woman
TTITLE2=Thelonious
TTITLE3=Closer To The Flower
TTITLE4=Know Your Enemy
EXTD=YEAR: 1998
EXTT0=
EXTT1=
EXTT2=
EXTT3=
EXTT4=
PLAYORDER=
